<svg id="Icons" xmlns="http://www.w3.org/2000/svg" viewBox="0 0 48 48"><defs><style>.cls-1{fill:#45413c;opacity:0.15;}.cls-2{fill:#ffe500;}.cls-3{fill:#fff48c;}.cls-4{fill:none;stroke:#45413c;stroke-linecap:round;stroke-linejoin:round;}.cls-5{fill:#daedf7;}.cls-6{fill:#fff;}.cls-7{fill:#ffaa54;}.cls-8{fill:#fc9;}</style></defs><title>735-locked-with-key</title><g id="_Group_" data-name="&lt;Group&gt;"><ellipse id="_Ellipse_" data-name="&lt;Ellipse&gt;" class="cls-1" cx="21.38" cy="45.14" rx="13" ry="1.5"/><rect id="_Rectangle_" data-name="&lt;Rectangle&gt;" class="cls-2" x="3.98" y="16.36" width="27.5" height="22" rx="3" ry="3"/><path id="_Path_" data-name="&lt;Path&gt;" class="cls-3" d="M28.48,16.36H7a3,3,0,0,0-3,3v4a3,3,0,0,1,3-3h21.5a3,3,0,0,1,3,3v-4A3,3,0,0,0,28.48,16.36Z"/><rect id="_Rectangle_2" data-name="&lt;Rectangle&gt;" class="cls-4" x="3.98" y="16.36" width="27.5" height="22" rx="3" ry="3"/><path id="_Path_2" data-name="&lt;Path&gt;" class="cls-5" d="M17.73,1.36A10.76,10.76,0,0,0,7,12.11v4.25h4.5V12.11a6.25,6.25,0,0,1,12.5,0v4.25h4.5V12.11A10.75,10.75,0,0,0,17.73,1.36Z"/><path id="_Path_3" data-name="&lt;Path&gt;" class="cls-6" d="M17.73,1.36A10.76,10.76,0,0,0,7,12.11v2.5a10.75,10.75,0,0,1,21.5,0v-2.5A10.75,10.75,0,0,0,17.73,1.36Z"/><path id="_Path_4" data-name="&lt;Path&gt;" class="cls-4" d="M17.73,1.36A10.76,10.76,0,0,0,7,12.11v4.25h4.5V12.11a6.25,6.25,0,0,1,12.5,0v4.25h4.5V12.11A10.75,10.75,0,0,0,17.73,1.36Z"/><path id="_Compound_Path_" data-name="&lt;Compound Path&gt;" class="cls-7" d="M41.82,24a7.5,7.5,0,0,0-12.07,8.53L20.24,42a1,1,0,0,0-.29.81l.22,1.91a1,1,0,0,0,.88.89l1.91.21a1,1,0,0,0,.82-.29l1.13-1.13a1,1,0,0,0,.29-.71v-1h1a1,1,0,0,0,.71-.29l.89-.89a1,1,0,0,0,.29-.71v-.59a1,1,0,0,1,.3-.7l1.18-1.18a1,1,0,0,1,.71-.3h.58a1,1,0,0,0,.71-.29l1.72-1.72A7.5,7.5,0,0,0,41.82,24Zm-3.53,3.54a1.5,1.5,0,1,1,2.12-2.12,1.5,1.5,0,0,1-2.12,2.12Z"/><g id="_Group_2" data-name="&lt;Group&gt;"><path id="_Path_5" data-name="&lt;Path&gt;" class="cls-8" d="M31.21,27.15a7.53,7.53,0,0,1,7.32-1.92,1.49,1.49,0,0,1,1.88.17,1.47,1.47,0,0,1,.41.92,7.86,7.86,0,0,1,1,.83,7.44,7.44,0,0,1,2,3.72,7.49,7.49,0,1,0-14.63,0A7.53,7.53,0,0,1,31.21,27.15Z"/><path id="_Path_6" data-name="&lt;Path&gt;" class="cls-8" d="M20.3,45.14l9.45-9.46a7.49,7.49,0,0,1-.67-2.49L20.24,42a1,1,0,0,0-.29.81l.22,1.91A.9.9,0,0,0,20.3,45.14Z"/></g><path id="_Compound_Path_2" data-name="&lt;Compound Path&gt;" class="cls-4" d="M41.82,24a7.5,7.5,0,0,0-12.07,8.53L20.24,42a1,1,0,0,0-.29.81l.22,1.91a1,1,0,0,0,.88.89l1.91.21a1,1,0,0,0,.82-.29l1.13-1.13a1,1,0,0,0,.29-.71v-1h1a1,1,0,0,0,.71-.29l.89-.89a1,1,0,0,0,.29-.71v-.59a1,1,0,0,1,.3-.7l1.18-1.18a1,1,0,0,1,.71-.3h.58a1,1,0,0,0,.71-.29l1.72-1.72A7.5,7.5,0,0,0,41.82,24Zm-3.53,3.54a1.5,1.5,0,1,1,2.12-2.12,1.5,1.5,0,0,1-2.12,2.12Z"/><line id="_Path_7" data-name="&lt;Path&gt;" class="cls-4" x1="20.25" y1="44.84" x2="29.45" y2="35.65"/></g></svg>