<svg xmlns="http://www.w3.org/2000/svg" viewBox="0 0 64 64" id="certificate"><path fill="#3498db" d="M4.5 12.5h55v39h-55z"></path><path fill="#ecf0f1" d="M52.5 15.5h-41a4 4 0 0 1-4 4v25a4 4 0 0 1 4 4h41a4 4 0 0 1 4-4v-25a4 4 0 0 1-4-4z"></path><path fill="#2c3e50" d="M23.5 18.5h17v3h-17z"></path><path fill="#e74c3c" d="m32.414 38.812.143-.065a1 1 0 0 1 1.35.559l.055.147a1 1 0 0 0 .585.585l.147.055a1 1 0 0 1 .559 1.35l-.065.143a1.003 1.003 0 0 0 0 .827l.065.143a1 1 0 0 1-.559 1.35l-.147.055a1 1 0 0 0-.585.585l-.055.147a1 1 0 0 1-1.35.559l-.143-.065a1.003 1.003 0 0 0-.827 0l-.143.065a1 1 0 0 1-1.35-.559l-.055-.147a1 1 0 0 0-.585-.585l-.147-.055a1 1 0 0 1-.559-1.35l.065-.143a1.003 1.003 0 0 0 0-.827l-.065-.143a1 1 0 0 1 .559-1.35l.147-.055a1 1 0 0 0 .585-.585l.055-.147a1 1 0 0 1 1.35-.559l.143.065c.262.119.564.119.827 0z"></path><path fill="#212e3a" d="M59.5 52h-55a.5.5 0 0 1-.5-.5v-39a.5.5 0 0 1 .5-.5h55a.5.5 0 0 1 .5.5v39a.5.5 0 0 1-.5.5zM5 51h54V13H5v38z"></path><path fill="#212e3a" d="M40.5 22h-17a.5.5 0 0 1-.5-.5v-3a.5.5 0 0 1 .5-.5h17a.5.5 0 0 1 .5.5v3a.5.5 0 0 1-.5.5zM24 21h16v-2H24v2zm16.5 6h-17a.5.5 0 0 1 0-1h17a.5.5 0 0 1 0 1zm10 3h-37a.5.5 0 0 1 0-1h37a.5.5 0 0 1 0 1zm0 3h-37a.5.5 0 0 1 0-1h37a.5.5 0 0 1 0 1zm0 3h-37a.5.5 0 0 1 0-1h37a.5.5 0 0 1 0 1z"></path><path fill="#f8b545" d="m32.188 40.617.321.651c.031.062.09.105.158.115l.719.104a.21.21 0 0 1 .116.358l-.52.507a.21.21 0 0 0-.06.186l.123.716a.21.21 0 0 1-.304.221l-.643-.338a.21.21 0 0 0-.195 0l-.643.338a.21.21 0 0 1-.304-.221l.123-.716a.21.21 0 0 0-.06-.186l-.52-.507a.21.21 0 0 1 .116-.358l.719-.104a.211.211 0 0 0 .158-.115l.321-.651a.209.209 0 0 1 .375 0z"></path><path fill="#212e3a" d="M50.5 46h-11a.5.5 0 0 1 0-1h11a.5.5 0 0 1 0 1zm-.267-1.998a.5.5 0 0 1-.433-.25c-.506-.874-1.885-.966-2.498-.145a.493.493 0 0 1-.331.196.518.518 0 0 1-.372-.097.995.995 0 0 0-1.278.064.5.5 0 1 1-.839-.317A.49.49 0 0 0 44 43a.49.49 0 0 0-.482.454.504.504 0 0 1-.321.419.503.503 0 0 1-.518-.102.998.998 0 0 0-1.278-.064.497.497 0 0 1-.703-.099A1.487 1.487 0 0 0 39.5 43a.5.5 0 0 1 0-1c.64 0 1.238.24 1.697.672a1.997 1.997 0 0 1 1.574-.016 1.477 1.477 0 0 1 2.458 0 1.997 1.997 0 0 1 1.574.016A2.46 2.46 0 0 1 48.5 42c.891 0 1.721.479 2.166 1.252a.498.498 0 0 1-.433.75zM24.5 46h-11a.5.5 0 0 1 0-1h11a.5.5 0 0 1 0 1zm-10.732-2a.5.5 0 0 1-.433-.75A2.507 2.507 0 0 1 15.5 42c.64 0 1.238.24 1.697.672a1.997 1.997 0 0 1 1.574-.016 1.477 1.477 0 0 1 2.458 0 1.997 1.997 0 0 1 1.574.016A2.46 2.46 0 0 1 24.5 42a.5.5 0 0 1 0 1c-.473 0-.909.222-1.197.607a.493.493 0 0 1-.331.196.518.518 0 0 1-.372-.097.995.995 0 0 0-1.278.064.5.5 0 1 1-.839-.317C20.457 43.195 20.25 43 20 43s-.457.195-.482.454a.504.504 0 0 1-.321.419.503.503 0 0 1-.518-.102.998.998 0 0 0-1.278-.064.497.497 0 0 1-.703-.099c-.613-.821-1.993-.729-2.497.143a.505.505 0 0 1-.433.249z"></path><path fill="#212e3a" d="M52.5 49h-41a.5.5 0 0 1-.5-.5c0-1.93-1.57-3.5-3.5-3.5a.5.5 0 0 1-.5-.5v-25a.5.5 0 0 1 .5-.5c1.93 0 3.5-1.57 3.5-3.5a.5.5 0 0 1 .5-.5h41a.5.5 0 0 1 .5.5c0 1.93 1.57 3.5 3.5 3.5a.5.5 0 0 1 .5.5v25a.5.5 0 0 1-.5.5c-1.93 0-3.5 1.57-3.5 3.5a.5.5 0 0 1-.5.5zm-40.527-1h40.055a4.51 4.51 0 0 1 3.973-3.973V19.973A4.51 4.51 0 0 1 52.028 16H11.973A4.51 4.51 0 0 1 8 19.973v24.055A4.509 4.509 0 0 1 11.973 48z"></path><path fill="#212e3a" d="M32.971 45.842c-.213 0-.425-.045-.621-.134l-.145-.066a.508.508 0 0 0-.413.002l-.14.063a1.501 1.501 0 0 1-2.026-.837l-.056-.145a.502.502 0 0 0-.293-.295l-.148-.056a1.504 1.504 0 0 1-.836-2.024l.066-.145a.496.496 0 0 0-.002-.413l-.063-.14a1.501 1.501 0 0 1 .837-2.026l.145-.056a.502.502 0 0 0 .295-.293l.056-.148a1.504 1.504 0 0 1 2.024-.836l.145.066a.506.506 0 0 0 .412-.001l.141-.064a1.501 1.501 0 0 1 2.026.837l.056.145a.502.502 0 0 0 .293.295l.148.056a1.504 1.504 0 0 1 .836 2.024l-.066.145a.496.496 0 0 0 .002.413l.063.14a1.501 1.501 0 0 1-.837 2.026l-.145.056a.502.502 0 0 0-.295.293l-.056.148a1.504 1.504 0 0 1-1.403.97zm-.97-1.243c.211 0 .422.044.619.133l.146.067c.124.057.268.06.396.006a.493.493 0 0 0 .277-.287l.056-.148c.152-.403.472-.723.877-.875l.145-.056a.494.494 0 0 0 .282-.674l-.064-.141a1.506 1.506 0 0 1-.002-1.243l.067-.146a.496.496 0 0 0-.281-.673l-.148-.056a1.502 1.502 0 0 1-.875-.877l-.056-.145a.499.499 0 0 0-.674-.282l-.141.064-.003.002a1.506 1.506 0 0 1-1.24 0l-.146-.067a.504.504 0 0 0-.396-.006.493.493 0 0 0-.277.287l-.056.148a1.502 1.502 0 0 1-.877.875l-.145.056a.494.494 0 0 0-.282.674l.064.141c.18.397.18.849.002 1.243l-.067.146a.496.496 0 0 0 .281.673l.148.056c.403.152.723.472.875.877l.056.145c.05.134.147.235.277.289a.49.49 0 0 0 .397-.007l.141-.064c.199-.09.412-.135.624-.135zm.413-5.786h.01-.01z"></path></svg>